<?xml version="1.0" encoding="UTF-8"?>
<svg id="Layer_1" data-name="Layer 1" xmlns="http://www.w3.org/2000/svg" viewBox="0 0 37.79 31.87">
  <path d="m18.71,16.68c1.32,0,2.61-.39,3.7-1.12,1.1-.73,1.95-1.77,2.46-2.99.5-1.22.64-2.56.38-3.85-.26-1.29-.89-2.48-1.82-3.41-.93-.93-2.12-1.57-3.41-1.82-1.29-.26-2.63-.13-3.85.38-1.22.5-2.26,1.36-2.99,2.46-.73,1.1-1.12,2.39-1.12,3.7,0,1.77.71,3.46,1.95,4.71,1.25,1.25,2.94,1.95,4.71,1.95Zm0-10.67c.79,0,1.56.23,2.22.67.66.44,1.17,1.06,1.47,1.8.3.73.38,1.54.23,2.31-.15.78-.54,1.49-1.09,2.05-.56.56-1.27.94-2.05,1.09-.78.15-1.58.08-2.31-.23-.73-.3-1.36-.82-1.8-1.47-.44-.66-.67-1.43-.67-2.22,0-1.06.42-2.08,1.17-2.83.75-.75,1.77-1.17,2.83-1.17Z"/>
  <path d="m30.7,26.79c-.58-2.7-2.11-5.1-4.31-6.77-2.2-1.67-4.92-2.5-7.68-2.34-2.76-.16-5.48.67-7.68,2.34-2.2,1.67-3.72,4.07-4.31,6.77l-.26,1.55h24.48l-.26-1.55Zm-20.85-1.11c.86-2.03,3.14-5.33,8.87-5.33s7.98,3.3,8.85,5.33H9.85Z"/>
</svg>